<?xml version="1.0" standalone="no"?>
<!DOCTYPE svg PUBLIC "-//W3C//DTD SVG 20010904//EN" "http://www.w3.org/TR/2001/REC-SVG-20010904/DTD/svg10.dtd">
<svg version="1.0" xmlns="http://www.w3.org/2000/svg"
    width="240.000000pt" height="240.000000pt" viewBox="0 0 240.000000 240.000000"
    preserveAspectRatio="xMidYMid meet">
    <g transform="translate(0.000000,240.000000) scale(0.100000,-0.100000)"
        fill="#8adfce" stroke="none">
        <path
            d="M627 1772 c-306 -306 -557 -564 -557 -572 0 -20 1110 -1130 1130
-1130 20 0 1130 1110 1130 1130 0 20 -1110 1130 -1130 1130 -8 0 -266 -251
-573 -558z" />
    </g>
    <g transform="translate(0.000000,240.000000) scale(0.050000,-0.050000)"
        fill="#0c1425" stroke="none">
        <path
            d="M1255 3545 c-613 -613 -1115 -1129 -1115 -1145 0 -39 2221 -2260
2260 -2260 39 0 2260 2221 2260 2260 0 39 -2221 2260 -2260 2260 -17 0 -532
-502 -1145 -1115z m1250 820 l96 -94 -781 -781 -780 -780 620 -620 c341 -341
620 -629 620 -641 0 -11 -41 -61 -90 -109 l-91 -89 -729 729 -730 730 875 875
c481 481 879 875 884 875 5 0 53 -43 106 -95z m1085 -1085 l879 -879 -99 -101
-99 -101 -781 781 -780 780 -620 -620 c-341 -341 -628 -620 -639 -620 -26 0
-191 163 -191 189 0 20 1420 1451 1440 1451 6 0 406 -396 890 -880z m-155
-465 l725 -725 -880 -880 -879 -879 -101 99 -101 99 786 786 785 785 -630 630
-629 629 89 91 c48 49 93 90 99 90 6 0 337 -326 736 -725z m-929 330 l94 -96
-270 -269 -269 -269 -91 89 c-118 115 -128 92 165 385 297 297 253 279 371
160z m484 -485 l259 -260 -100 -100 -100 -100 -269 270 -269 269 89 91 c116
118 93 128 390 -170z m-470 -150 l109 -110 -114 -115 -115 -115 -115 115 -114
115 109 110 c60 60 114 110 120 110 6 0 60 -50 120 -110z m190 -850 c341 341
629 620 641 620 11 0 61 -41 109 -90 l89 -91 -729 -729 -730 -730 -880 880
-879 879 99 101 99 101 781 -781 780 -780 620 620z m-510 310 c-116 -118 -93
-128 -390 170 l-259 260 99 100 99 101 270 -270 270 -270 -89 -91z m646 215
l94 -96 -270 -269 -270 -269 -100 99 -100 99 264 265 c309 310 264 290 382
171z" />
    </g>

</svg>