<?xml version="1.0" encoding="UTF-8"?><svg id="b" xmlns="http://www.w3.org/2000/svg" viewBox="0 0 508.97 508.97"><g id="c"><g id="d"><rect x="79.49" y="79.49" width="350" height="350" transform="translate(-105.41 254.49) rotate(-45)" style="fill:#8adfce;"/><rect x="229.49" y="229.49" width="50" height="50" transform="translate(-105.41 254.49) rotate(-45)" style="fill:none; stroke:#0c1425; stroke-linejoin:round; stroke-width:14px;"/><rect x="176.45" y="222.17" width="50" height="100" transform="translate(-133.45 222.17) rotate(-45)" style="fill:none; stroke:#0c1425; stroke-linejoin:round; stroke-width:14px;"/><rect x="186.81" y="176.45" width="100" height="50" transform="translate(-73.09 226.45) rotate(-45)" style="fill:none; stroke:#0c1425; stroke-linejoin:round; stroke-width:14px;"/><polygon points="289.84 42.36 501.97 254.49 466.62 289.84 289.84 113.07 148.42 254.49 113.07 219.13 289.84 42.36" style="fill:none; stroke:#0c1425; stroke-linejoin:round; stroke-width:14px;"/><rect x="222.17" y="282.52" width="100" height="50" transform="translate(-137.73 282.52) rotate(-45)" style="fill:none; stroke:#0c1425; stroke-linejoin:round; stroke-width:14px;"/><polygon points="254.49 7 289.84 42.36 113.07 219.13 254.49 360.55 219.13 395.91 42.36 219.13 254.49 7" style="fill:none; stroke:#0c1425; stroke-linejoin:round; stroke-width:14px;"/><rect x="282.52" y="186.81" width="50" height="100" transform="translate(-77.38 286.81) rotate(-45)" style="fill:none; stroke:#0c1425; stroke-linejoin:round; stroke-width:14px;"/><polygon points="289.84 113.07 466.62 289.84 254.49 501.97 219.13 466.62 395.91 289.84 254.49 148.42 289.84 113.07" style="fill:none; stroke:#0c1425; stroke-linejoin:round; stroke-width:14px;"/><polygon points="360.55 254.49 395.91 289.84 219.13 466.62 7 254.49 42.36 219.13 219.13 395.91 360.55 254.49" style="fill:none; stroke:#0c1425; stroke-linejoin:round; stroke-width:14px;"/></g></g></svg>